# AST/ASF file generated using VICON BodyLanguage
# -----------------------------------------------
:version 1.10
:name VICON
:units
  mass 1.0
  length 0.45
  angle deg
:documentation
   .ast/.asf automatically generated from VICON data using
   VICON BodyBuilder and BodyLanguage model FoxedUp or BRILLIANT.MOD
:root
   order TX TY TZ RX RY RZ
   axis XYZ
   position 0 0 0  
   orientation 0 0 0 
:bonedata
  begin
     id 1 
     name lhipjoint
     direction 0.537252 -0.787203 0.302774 
     length 2.29576 
     axis 0 0 0  XYZ
  end
  begin
     id 2 
     name lfemur
     direction 0.34202 -0.939693 0  
     length 7.31114  
     axis 0 0 20  XYZ
    dof rx ry rz
    limits (-160.0 20.0)
           (-70.0 70.0)
           (-60.0 70.0)
  end
  begin
     id 3 
     name ltibia
     direction 0.34202 -0.939693 0   
     length 8.36008   
     axis 0 0 20   XYZ
    dof rx
    limits (-10.0 170.0)
  end
  begin
     id 4 
     name lfoot
     direction 0.0969116 -0.266263 0.959016   
     length 2.16704   
     axis -90 7.62852e-016 20   XYZ
    dof rx rz
    limits (-45.0 90.0)
           (-70.0 20.0)
  end
  begin
     id 5 
     name ltoes
     direction 1.53563e-011 -4.21779e-011 1   
     length 1.08338   
     axis -90 7.62852e-016 20   XYZ
    dof rx
    limits (-90.0 20.0)
  end
  begin
     id 6 
     name rhipjoint
     direction -0.588228 -0.754791 0.290308   
     length 2.39434  
     axis 0 0 0  XYZ 
  end
  begin
     id 7 
     name rfemur
     direction -0.34202 -0.939693 0   
     length 7.45207   
     axis 0 0 -20   XYZ
    dof rx ry rz
    limits (-160.0 20.0)
           (-70.0 70.0)
           (-70.0 60.0)
  end
  begin
     id 8 
     name rtibia
     direction -0.34202 -0.939693 0   
     length 8.03565   
     axis 0 0 -20   XYZ
    dof rx
    limits (-10.0 170.0)
 end
 begin
     id 9 
     name rfoot
     direction -0.107009 -0.294004 0.949795   
     length 2.11509  
     axis -90 -7.62852e-016 -20   XYZ
    dof rx rz
    limits (-45.0 90.0)
           (-20.0 70.0)
  end
  begin
     id 10 
     name rtoes
     direction -1.53533e-011 -4.22004e-011 1   
     length 1.05493   
     axis -90 -7.62852e-016 -20   XYZ
    dof rx
    limits (-90.0 20.0)
  end
  begin
     id 11 
     name lowerback
     direction -0.0115208 0.997969 -0.0626515   
     length 2.03153   
     axis 0 0 0   XYZ
    dof rx ry rz
    limits (-20.0 45.0)
           (-30.0 30.0)
           (-30.0 30.0)
  end
  begin
     id 12 
     name upperback
     direction -0.00423475 0.999974 -0.00583614   
     length 2.03619   
     axis 0 0 0   XYZ
    dof rx ry rz
    limits (-20.0 45.0)
           (-30.0 30.0)
           (-30.0 30.0)
  end
  begin
     id 13 
     name thorax
     direction 0.00289429 0.999728 0.0231573   
     length 2.03921   
     axis 0 0 0   XYZ
    dof rx ry rz
    limits (-20.0 45.0)
           (-30.0 30.0)
           (-30.0 30.0)
  end
  begin
     id 14 
     name lowerneck
     direction 0.0188995 0.987777 0.154721   
     length 1.78836   
     axis 0 0 0   XYZ
    dof rx ry rz
    limits (-20.0 45.0)
           (-30.0 30.0)
           (-30.0 30.0)
  end
  begin
     id 15 
     name upperneck
     direction -0.00612612 0.992995 -0.118   
     length 1.81789   
     axis 0 0 0   XYZ
    dof rx ry rz
    limits (-20.0 45.0)
           (-30.0 30.0)
           (-30.0 30.0)
  end
  begin
     id 16
     name head
     direction -0.00420226 0.998397 -0.0564482  
     length 1.82234  
     axis 0 0 0   XYZ
    dof rx ry rz
    limits (-20.0 45.0)
           (-30.0 30.0)
           (-30.0 30.0)
  end
  begin
     id 17 
     name lclavicle
     direction 0.916488 0.396539 0.0529676  
     length 3.51732  
     axis 0 0 0   XYZ
    dof ry rz
    limits (-20.0 10.0)
           (0.0 20.0)
  end
  begin
     id 18 
     name lhumerus
     direction 1 -4.4896e-011 8.36962e-028   
     length 5.45077   
     axis 180 -30 -90   XYZ
    dof rx ry rz
    limits (-60.0 90.0)
           (-90.0 90.0)
           (-90.0 90.0)
  end
  begin
     id 19
     name lradius
     direction 1 -4.48962e-011 3.01407e-027   
     length 3.05488   
     axis 180 -30 -90   XYZ
    dof rx
    limits (-10.0 170.0)
  end
  begin
     id 20
     name lwrist
     direction 1 -4.49002e-011 4.72961e-027   
     length 1.52744   
     axis -2.72261e-015 90 90   XYZ
    dof ry
    limits (-180.0 0.0)
 end
  begin
     id 21 
     name lhand
     direction 1 -4.4899e-011 9.45681e-027   
     length 0.638818   
     axis -6.0311e-015 90 90   XYZ
    dof rx rz
    limits (-90.0 90.0)
           (-45.0 45.0)
  end
  begin
     id 22 
     name lfingers
     direction 1 -4.48871e-011 1.88632e-026   
     length 0.515032   
     axis -1.20625e-014 90 90   XYZ
    dof rx
    limits (0.0 90.0)
  end
  begin
     id 23
     name lthumb
     direction 0.707107 -6.34964e-011 0.707107   
     length 0.739485   
     axis -90 45 6.32835e-014   XYZ
    dof rx rz
    limits (-45.0 45.0)
           (-45.0 45.0)
  end
  begin
     id 24 
     name rclavicle
     direction -0.949427 0.303202 0.0815894   
     length 3.76167  
     axis 0 0 0   XYZ 
    dof ry rz
    limits (-10.0 20.0)
           (-20.0 0.0)
  end
  begin
     id 25 
     name rhumerus
     direction -1 -4.48971e-011 -6.43969e-018  
     length 4.88702   
     axis 180 30 90   XYZ
    dof rx ry rz
    limits (-90.0 60.0)
           (-90.0 90.0)
           (-90.0 90.0)
  end
  begin
     id 26 
     name rradius
     direction -1 -4.48987e-011 5.46662e-027   
     length 3.22603   
     axis 180 30 90   XYZ
    dof rx
    limits (-10.0 170.0)
  end
  begin
     id 27 
     name rwrist
     direction -1 -4.48956e-011 4.72476e-027   
     length 1.61302   
     axis -2.72261e-015 -90 -90   XYZ
    dof ry
    limits (-180.0 0.0)
  end
  begin
     id 28
     name rhand
     direction -1 -4.4889e-011 9.43571e-027   
     length 0.716293   
     axis -6.0311e-015 -90 -90   XYZ
    dof rx rz
    limits (-90.0 90.0)
           (-45.0 45.0)
  end
  begin
     id 29
     name rfingers
     direction -1 -4.48887e-011 1.88701e-026   
     length 0.577494   
     axis -1.20625e-014 -90 -90   XYZ
    dof rx
    limits (0.0 90.0)
  end
  begin
     id 30
     name rthumb
     direction -0.707107 -6.34825e-011 0.707107   
     length 0.829169   
     axis -90 -45 -6.32835e-014   XYZ
    dof rx rz
    limits (-45.0 45.0)
           (-45.0 45.0)
  end
:hierarchy
  begin
    root lhipjoint rhipjoint lowerback
    lhipjoint lfemur
    lfemur ltibia
    ltibia lfoot
    lfoot ltoes
    rhipjoint rfemur
    rfemur rtibia
    rtibia rfoot
    rfoot rtoes
    lowerback upperback
    upperback thorax
    thorax lowerneck lclavicle rclavicle
    lowerneck upperneck
    upperneck head
    lclavicle lhumerus
    lhumerus lradius
    lradius lwrist
    lwrist lhand lthumb
    lhand lfingers
    rclavicle rhumerus
    rhumerus rradius
    rradius rwrist
    rwrist rhand rthumb
    rhand rfingers
  end

#!OML:ASF F:\VICON\USERDATA\INSTALL\rory3\rory3.ASF
:FULLY-SPECIFIED
:DEGREES
341
root 1.39687 18.5554 0.263731 42.792 82.8146 30.3623
lowerback -9.66736 -2.67085 -1.7383
upperback -2.19028 -3.34573 0.695035
thorax 3.27715 -1.6536 1.28243
lowerneck -18.5419 -1.71709 2.0604
upperneck 22.6272 -3.0269 0.581167
head 10.2809 -1.07369 -0.553571
rclavicle -8.61732e-014 7.15625e-015
rhumerus 9.43726 9.79092 -29.9555
rradius 84.9591
rwrist 12.611
rhand -7.75618 7.84572
rfingers 7.12502
rthumb 18.1434 -21.3281
lclavicle -8.61732e-014 7.15625e-015
lhumerus -41.8512 -16.174 87.9
lradius 39.1146
lwrist 13.1113
lhand -9.50661 25.0299
lfingers 7.12502
lthumb 16.4587 54.3518
rfemur -11.8369 -14.8588 14.8728
rtibia 6.0008
rfoot -2.97965 18.5039
rtoes -11.346
lfemur -13.7677 10.7038 -23.0732
ltibia 13.8246
lfoot -11.7072 1.60487
ltoes -27.1345
342
root 1.39708 18.5568 0.25953 42.8795 82.5336 30.3864
lowerback -9.73897 -2.67812 -1.86334
upperback -2.21804 -3.33826 0.6338
thorax 3.29103 -1.65006 1.2875
lowerneck -18.4639 -1.74368 2.22173
upperneck 22.4225 -3.08244 0.473313
head 10.187 -1.1044 -0.623976
rclavicle -3.57812e-015 -8.34896e-015
rhumerus 10.1599 10.2839 -28.8629
rradius 84.002
rwrist 14.3555
rhand -7.13344 7.86045
rfingers 7.12502
rthumb 18.7425 -21.2566
lclavicle -3.57812e-015 -8.34896e-015
lhumerus -41.9426 -16.1141 87.8562
lradius 39.1361
lwrist 12.9922
lhand -9.47392 25.1168
lfingers 7.12502
lthumb 16.4902 54.436
rfemur -11.9923 -14.6665 14.6798
rtibia 6.07293
rfoot -3.05273 18.4656
rtoes -11.7321
lfemur -13.8056 10.7413 -23.2913
ltibia 13.7868
lfoot -11.7915 1.76951
ltoes -27.2726
343
root 1.39694 18.5583 0.254271 41.7098 82.4343 29.1998
lowerback -9.72113 -2.69755 -1.73449
upperback -2.24232 -3.37712 0.635689
thorax 3.25018 -1.66782 1.21394
lowerneck -18.4464 -1.75201 2.34177
upperneck 22.3147 -3.11602 0.418379
head 10.1416 -1.11947 -0.666976
rclavicle -1.49585e-014 1.43125e-014
rhumerus 10.9776 10.7989 -27.808
rradius 83.0244
rwrist 15.8848
rhand -6.56278 7.56229
rfingers 7.12502
rthumb 19.2913 -21.5009
lclavicle -1.49585e-014 1.43125e-014
lhumerus -42.0373 -15.9287 87.7516
lradius 39.0812
lwrist 12.756
lhand -9.37529 25.0161
lfingers 7.12502
lthumb 16.5852 54.3274
rfemur -12.0391 -14.4913 14.7284
rtibia 6.07159
rfoot -3.06226 18.4022
rtoes -11.6333
lfemur -13.7975 10.747 -23.2364
ltibia 13.7853
lfoot -11.8347 1.94601
ltoes -27.689
344
root 1.39764 18.5563 0.250245 40.3834 82.3825 27.8483
lowerback -9.67432 -2.74337 -1.55636
upperback -2.30229 -3.45743 0.686049
thorax 3.15765 -1.70525 1.16016
lowerneck -18.4294 -1.74551 2.37895
upperneck 22.2832 -3.09328 0.320043
head 10.1246 -1.11918 -0.704261
rclavicle -2.48481e-015 -9.14409e-015
rhumerus 11.9214 11.3963 -26.6597
rradius 81.8777
rwrist 17.137
rhand -6.8974 7.42398
rfingers 7.12502
rthumb 18.9695 -21.671
lclavicle -2.48481e-015 -9.14409e-015
lhumerus -42.1745 -15.6777 87.6895
lradius 38.9744
lwrist 12.6241
lhand -9.26086 25.0994
lfingers 7.12502
lthumb 16.6953 54.4015
rfemur -12.0463 -14.3397 14.8236
rtibia 5.99556
rfoot -3.02404 18.3927
rtoes -11.422
lfemur -13.8135 10.7836 -23.1165
ltibia 13.818
lfoot -11.8583 2.02441
ltoes -27.4474
345
root 1.39955 18.5545 0.250631 39.3026 82.28 26.7952
lowerback -9.60245 -2.78662 -1.52403
upperback -2.34544 -3.52084 0.743229
thorax 3.07701 -1.73586 1.19788
lowerneck -18.4206 -1.72313 2.35533
upperneck 22.294 -3.05579 0.322338
head 10.1276 -1.10368 -0.694369
rclavicle 3.03147e-015 -2.78299e-015
rhumerus 12.8777 11.9597 -25.4782
rradius 80.6693
rwrist 18.1654
rhand -7.42192 7.56735
rfingers 7.12502
rthumb 18.465 -21.5763
lclavicle 3.03147e-015 -2.78299e-015
lhumerus -42.2704 -15.5222 87.7024
lradius 38.8805
lwrist 12.734
lhand -9.363 25.2254
lfingers 7.12502
lthumb 16.597 54.5357
rfemur -11.9198 -14.1716 14.8459
rtibia 5.81456
rfoot -2.88685 18.3695
rtoes -11.4404
lfemur -13.7889 10.9401 -23.0507
ltibia 13.8828
lfoot -11.9133 2.02002
ltoes -27.4778
346
root 1.40047 18.5545 0.250133 38.3892 82.1381 25.8696
lowerback -9.62183 -2.80259 -1.52187
upperback -2.35737 -3.54248 0.765152
thorax 3.07734 -1.74644 1.21604
lowerneck -18.4664 -1.70836 2.42066
upperneck 22.274 -3.05011 0.29368
head 10.1276 -1.09972 -0.714981
rclavicle -1.77912e-014 1.19271e-015
rhumerus 13.851 12.3795 -24.3127
rradius 79.4735
rwrist 18.7716
rhand -7.86875 7.61697
rfingers 7.12502
rthumb 18.0351 -21.5669
lclavicle -1.77912e-014 1.19271e-015
lhumerus -42.3186 -15.5492 87.7403
lradius 38.7724
lwrist 12.8233
lhand -9.39756 25.1941
lfingers 7.12502
lthumb 16.5637 54.5072
rfemur -11.8713 -13.9843 14.856
rtibia 5.66271
rfoot -2.8363 18.3433
rtoes -11.7213
lfemur -13.8096 11.045 -23.0238
ltibia 13.9258
lfoot -11.9642 2.11046
ltoes -27.6835
347
root 1.40257 18.5551 0.248435 37.7163 81.9379 25.2154
lowerback -9.63576 -2.83186 -1.55705
upperback -2.3645 -3.57776 0.768147
thorax 3.08118 -1.76414 1.23388
lowerneck -18.5364 -1.67036 2.45149
upperneck 22.3343 -3.0152 0.314376
head 10.1629 -1.077 -0.709333
rclavicle -5.72003e-014 -8.74653e-015
rhumerus 14.8878 12.7936 -23.2821
rradius 78.2595
rwrist 19.1478
rhand -8.22218 7.66003
rfingers 7.12502
rthumb 17.695 -21.5548
lclavicle -5.72003e-014 -8.74653e-015
lhumerus -42.4102 -15.3796 87.699
lradius 38.6842
lwrist 12.6792
lhand -9.31539 25.0725
lfingers 7.12502
lthumb 16.6428 54.379
rfemur -11.8778 -13.7718 14.7925
rtibia 5.6561
rfoot -2.84312 18.3348
rtoes -11.7765
lfemur -13.7435 10.9718 -23.0282
ltibia 13.9031
lfoot -12.033 2.28644
ltoes -27.1584
348
root 1.40507 18.556 0.247755 37.2086 81.7246 24.7089
lowerback -9.67811 -2.84536 -1.60758
upperback -2.36885 -3.58865 0.735204
thorax 3.10137 -1.76975 1.22476
lowerneck -18.6606 -1.65037 2.55278
upperneck 22.4318 -3.0244 0.315945
head 10.22 -1.06962 -0.729176
rclavicle -4.05024e-014 1.82882e-014
rhumerus 15.8047 13.1658 -22.2555
rradius 77.0652
rwrist 19.6041
rhand -8.60811 7.62789
rfingers 7.12502
rthumb 17.3236 -21.62
lclavicle -4.05024e-014 1.82882e-014
lhumerus -42.4583 -15.1042 87.5599
lradius 38.6002
lwrist 12.4031
lhand -9.13068 25.1228
lfingers 7.12502
lthumb 16.8206 54.4142
rfemur -11.8775 -13.5649 14.698
rtibia 5.60384
rfoot -2.70912 18.323
rtoes -11.3077
lfemur -13.6713 10.897 -23.0657
ltibia 13.8959
lfoot -12.1083 2.53667
ltoes -27.4803
349
root 1.40783 18.5571 0.244928 36.99 81.5121 24.4925
lowerback -9.72516 -2.84903 -1.68236
upperback -2.3618 -3.58423 0.704411
thorax 3.13707 -1.76818 1.23274
lowerneck -18.7655 -1.65739 2.56688
upperneck 22.472 -3.05659 0.364749
head 10.2548 -1.07609 -0.720411
rclavicle -1.79652e-014 -7.55382e-015
rhumerus 16.6549 13.4971 -21.109
rradius 75.9375
rwrist 20.0968
rhand -9.3279 7.35465
rfingers 7.12502
rthumb 16.6308 -21.9528
lclavicle -1.79652e-014 -7.55382e-015
lhumerus -42.5091 -15.1097 87.6187
lradius 38.6009
lwrist 12.3619
lhand -8.99755 25.3454
lfingers 7.12502
lthumb 16.9488 54.6259
rfemur -11.9417 -13.3831 14.5715
rtibia 5.67321
rfoot -2.65453 18.3211
rtoes -10.9479
lfemur -13.5913 10.8551 -23.1527
ltibia 13.8478
lfoot -12.0999 2.73579
ltoes -27.2914
350
root 1.40866 18.5544 0.242906 36.0755 81.4548 23.5857
lowerback -9.71788 -2.86402 -1.61435
upperback -2.38097 -3.61137 0.723748
thorax 3.11123 -1.78085 1.21224
lowerneck -18.7766 -1.65355 2.60731
upperneck 22.5099 -3.0805 0.428208
head 10.2712 -1.07457 -0.708432
rclavicle -5.48894e-014 3.57812e-015
rhumerus 17.5222 13.8213 -19.9658
rradius 74.7193
rwrist 20.833
rhand -9.87866 7.12844
rfingers 7.12502
rthumb 16.1005 -22.2227
lclavicle -5.48894e-014 3.57812e-015
lhumerus -42.582 -15.1209 87.6731
lradius 38.5297
lwrist 12.4425
lhand -8.97347 25.4308
lfingers 7.12502
lthumb 16.972 54.7093
rfemur -11.9805 -13.2555 14.646
rtibia 5.73718
rfoot -2.59156 18.3377
rtoes -10.799
lfemur -13.5589 11.0117 -23.0714
ltibia 13.8195
lfoot -12.0478 2.71612
ltoes -27.5045
351
root 1.40754 18.5532 0.240682 36.1772 81.3159 23.6736
lowerback -9.74593 -2.90909 -1.69963
upperback -2.39613 -3.66068 0.690454
thorax 3.11581 -1.80553 1.21826
lowerneck -18.7954 -1.6117 2.64284
upperneck 22.5157 -3.05521 0.511499
head 10.2787 -1.04938 -0.681554
rclavicle -6.33626e-015 -3.57812e-015
rhumerus 18.3761 14.0201 -18.9979
rradius 73.4563
rwrist 22.1038
rhand -10.586 6.88651
rfingers 7.12502
rthumb 15.4193 -22.5184
lclavicle -6.33626e-015 -3.57812e-015
lhumerus -42.63 -15.0118 87.6631
lradius 38.4893
lwrist 12.479
lhand -9.46099 24.9259
lfingers 7.12502
lthumb 16.5027 54.2441
rfemur -12.0825 -13.1552 14.5506
rtibia 5.83341
rfoot -2.65105 18.3339
rtoes -11.0212
lfemur -13.5554 11.0641 -23.1748
ltibia 13.7752
lfoot -12.0333 2.78831
ltoes -28.041
352
root 1.40692 18.5522 0.240305 35.6707 81.2021 23.1664
lowerback -9.77685 -2.90927 -1.69457
upperback -2.40523 -3.65891 0.647556
thorax 3.12022 -1.80428 1.17008
lowerneck -18.7725 -1.59052 2.72951
upperneck 22.5003 -3.07683 0.614202
head 10.2697 -1.0393 -0.662181
rclavicle 2.68111e-014 -9.54166e-015
rhumerus 19.1894 14.1635 -18.1094
rradius 72.1799
rwrist 22.9414
rhand -10.9888 6.70351
rfingers 7.12502
rthumb 15.0313 -22.7309
lclavicle 2.68111e-014 -9.54166e-015
lhumerus -42.6886 -15.0559 87.6505
lradius 38.4444
lwrist 12.577
lhand -9.95785 23.8366
lfingers 7.12502
lthumb 16.0242 53.1939
rfemur -12.0719 -13.0184 14.546
rtibia 5.77377
rfoot -2.65683 18.283
rtoes -11.0516
lfemur -13.5734 10.9696 -23.1516
ltibia 13.8121
lfoot -12.0639 3.02413
ltoes -28.1211
353
root 1.4085 18.5526 0.240148 35.3862 81.0332 22.89
lowerback -9.81229 -2.91814 -1.75
upperback -2.41301 -3.66245 0.601369
thorax 3.13221 -1.80611 1.15132
lowerneck -18.8625 -1.56804 2.7372
upperneck 22.6327 -3.09555 0.780769
head 10.3383 -1.02221 -0.608958
rclavicle -4.84041e-014 4.77083e-015
rhumerus 20.0198 14.2368 -17.3177
rradius 70.9478
rwrist 23.2347
rhand -10.6468 6.77335
rfingers 7.12502
rthumb 15.3607 -22.6361
lclavicle -4.84041e-014 4.77083e-015
lhumerus -42.7364 -15.0463 87.6006
lradius 38.3974
lwrist 12.5652
lhand -9.94156 23.4526
lfingers 7.12502
lthumb 16.0399 52.8087
rfemur -12.1065 -12.858 14.4746
rtibia 5.79387
rfoot -2.62455 18.2711
rtoes -11.0104
lfemur -13.543 10.9123 -23.1931
ltibia 13.8115
lfoot -12.1343 3.24465
ltoes -28.1723
